<?xml version="1.0" standalone="no"?><!DOCTYPE svg PUBLIC "-//W3C//DTD SVG 1.1//EN" "http://www.w3.org/Graphics/SVG/1.1/DTD/svg11.dtd"><svg t="1698309639053" class="icon" viewBox="0 0 1024 1024" version="1.1" xmlns="http://www.w3.org/2000/svg" p-id="1546" xmlns:xlink="http://www.w3.org/1999/xlink" width="200" height="200"><path d="M302.7968 288.3584s-176.2816 106.4448-156.4672 340.1216c21.6064 254.6688 240.64 333.824 381.0304 329.6768s347.5456-112.9472 350.464-379.904S650.9056 235.52 511.1296 233.0624s-208.3328 55.296-208.3328 55.296z" fill="#FFAE71" p-id="1547"></path><path d="M735.9488 881.7152C316.928 938.2912 235.0592 520.2944 219.1872 368.128c-42.3424 55.7568-82.944 141.568-72.8576 260.352 21.6064 254.6688 240.64 333.824 381.0304 329.6768 64.256-1.9456 142.3872-25.6 208.5888-76.4416z" fill="#F29955" p-id="1548"></path><path d="M516.7104 973.6704a427.264 427.264 0 0 1-233.1136-70.6048C193.7408 841.8304 141.0048 747.52 131.0208 629.76 120.3712 504.2688 165.2736 414.72 204.8 361.6256a358.0416 358.0416 0 0 1 89.088-85.8112c9.3696-7.424 80.7424-60.2112 217.4976-58.112 126.0544 2.048 295.3216 60.0576 357.2224 216.9856a15.36 15.36 0 0 1-28.5696 11.264c-56.32-142.7968-212.5312-195.6352-329.1648-197.5296-131.584-1.9968-197.5808 51.2-198.2464 51.7632a17.7664 17.7664 0 0 1-1.8944 1.3312c-6.8096 4.1472-167.8336 104.7552-149.0944 325.632 21.8624 257.5872 248.6272 319.1296 365.312 315.648 37.0176-1.1264 164.864-12.4416 254.6688-112.2304 62.6176-69.5808 89.856-164.7104 80.9472-282.8288a15.36 15.36 0 1 1 30.72-2.304c9.5744 126.8224-20.48 229.632-88.7296 305.664-97.9456 108.8512-236.4928 121.1904-276.48 122.368-3.9424 0.1536-7.68 0.2048-11.3664 0.2048z" fill="#000F04" p-id="1549"></path><path d="M89.856 125.184s45.1072 22.528 82.3808 0S396.7488 31.0272 498.688 208.4864c-45.4656 64.6656-148.0192 133.376-299.9808 76.4928C149.6576 264.3968 87.04 200.6528 89.856 125.184z" fill="#BFE5BD" p-id="1550"></path><path d="M198.7072 284.9792C340.6336 337.92 439.5008 281.6 488.96 221.2864a85.1456 85.1456 0 0 0 0-16.9472c-275.3536 79.8208-399.36-79.1552-399.36-79.1552-2.56 75.4688 60.0576 139.2128 109.1072 159.7952z" fill="#A2DD9E" p-id="1551"></path><path d="M307.8144 321.4848a326.5024 326.5024 0 0 1-114.4832-22.1184h-0.5632c-51.2-21.4016-121.5488-89.7536-118.272-174.5408a15.36 15.36 0 0 1 22.2208-13.1584c0.7168 0.3584 38.3488 18.3296 67.5328 0.6144 25.9072-15.6672 112.64-51.2 202.4448-28.0576 60.8768 15.4112 109.7728 54.784 145.3056 116.6336a15.36 15.36 0 0 1-0.768 16.4864 246.016 246.016 0 0 1-203.4176 104.1408z m-103.424-50.7904c129.9968 48.5376 226.4064 0.6656 275.8656-63.0784-30.72-49.5104-71.68-81.1008-121.2416-93.9008-79.0528-20.48-157.5936 11.7248-178.8416 24.576-26.0096 15.7696-54.4768 13.4656-73.8304 8.7552 8.5504 59.5968 60.7232 107.8272 98.048 123.648z" fill="#000F04" p-id="1552"></path><path d="M538.9312 81.92l58.3168 20.0704S503.6032 188.672 521.2672 307.2c-11.776 7.8336-43.6224 0-43.6224 0s2.4576-157.7472 61.2864-225.28z" fill="#CF9782" p-id="1553"></path><path d="M504.0128 326.144a133.12 133.12 0 0 1-30.0544-3.9424 15.36 15.36 0 0 1-11.6736-15.36c0-6.656 3.2256-164.2496 65.024-235.52a15.36 15.36 0 0 1 16.5888-4.4544l58.368 20.1216a15.36 15.36 0 0 1 5.4272 25.6c-0.8704 0.8192-87.4496 82.9952-71.2192 191.8976a15.36 15.36 0 0 1-6.7072 15.0528 47.4112 47.4112 0 0 1-25.7536 6.6048z m-10.24-31.5392a87.04 87.04 0 0 0 10.9056 0.8192c-7.3216-87.04 39.2704-155.648 65.4848-186.6752l-25.6-8.8576c-40.1408 54.6816-49.1008 158.4128-51.0464 194.7136z" fill="#000F04" p-id="1554"></path><path d="M580.7616 340.992a15.36 15.36 0 0 1-13.2608-7.6288c-9.3696-15.9744-30.72-18.688-64.0512-7.936a15.36 15.36 0 0 1-11.1616-0.6656c-42.2912-19.5584-68.9152 10.5472-69.2224 10.8544a15.36 15.36 0 1 1-23.2448-20.0192 88.9344 88.9344 0 0 1 99.7376-21.1456c56.7808-16.5888 82.688 3.328 94.4128 23.3984a15.36 15.36 0 0 1-13.2096 23.1424zM411.4432 852.3264a15.36 15.36 0 0 1-6.4512-1.4336c-102.4-47.6672-160.1536-126.3104-170.9056-233.7792a15.36 15.36 0 1 1 30.72-3.072c9.5744 95.8976 61.1328 166.2464 153.2416 208.9984a15.36 15.36 0 0 1-6.4512 29.2864zM246.4768 567.9616H245.76a15.36 15.36 0 0 1-14.4896-16.1792c0.4096-7.4752 0.9728-11.776 1.0752-12.2368a15.36 15.36 0 1 1 30.4128 4.0448s-0.4608 3.6352-0.8192 9.9328a15.36 15.36 0 0 1-15.4624 14.4384z" fill="#000F04" p-id="1555"></path></svg>