<?xml version="1.0" standalone="no"?><!DOCTYPE svg PUBLIC "-//W3C//DTD SVG 1.1//EN" "http://www.w3.org/Graphics/SVG/1.1/DTD/svg11.dtd"><svg t="1732346477737" class="icon" viewBox="0 0 1024 1024" version="1.1" xmlns="http://www.w3.org/2000/svg" p-id="27098" xmlns:xlink="http://www.w3.org/1999/xlink" width="200" height="200"><path d="M452.992 489.504l199.936 157.664-132.352-326.912zM512 0C229.152 0 0 229.152 0 512s229.152 512 512 512 512-229.152 512-512S794.848 0 512 0z m247.328 738.336a36.32 36.32 0 0 1-37.344 35.424c-10.08 0-17.76-3.84-28.32-12.512l-264.096-213.344-88.704 221.984H264.16l223.872-537.824a33.664 33.664 0 0 1 32.608-21.6c13.92-0.608 26.88 8.064 31.648 21.6l203.68 490.4c1.92 4.736 3.424 9.984 3.424 14.848l-0.032 0.992z" fill="#EE0000" p-id="27099"></path></svg>