<?xml version="1.0" standalone="no"?><!DOCTYPE svg PUBLIC "-//W3C//DTD SVG 1.1//EN" "http://www.w3.org/Graphics/SVG/1.1/DTD/svg11.dtd"><svg t="1732346284046" class="icon" viewBox="0 0 1024 1024" version="1.1" xmlns="http://www.w3.org/2000/svg" p-id="10231" xmlns:xlink="http://www.w3.org/1999/xlink" width="200" height="200"><path d="M75.956044 436.043956z m0-2.813187z" p-id="10232"></path><path d="M450.10989 450.10989m-450.10989 0a450.10989 450.10989 0 1 0 900.21978 0 450.10989 450.10989 0 1 0-900.21978 0Z" fill="#00BAC7" p-id="10233"></path><path d="M154.725275 559.824176m-90.021978 0a90.021978 90.021978 0 1 0 180.043956 0 90.021978 90.021978 0 1 0-180.043956 0Z" fill="#95E3EA" p-id="10234"></path><path d="M154.725275 559.824176m-39.384616 0a39.384615 39.384615 0 1 0 78.769231 0 39.384615 39.384615 0 1 0-78.769231 0Z" fill="#5FBFCF" p-id="10235"></path><path d="M745.494505 559.824176m-90.021978 0a90.021978 90.021978 0 1 0 180.043957 0 90.021978 90.021978 0 1 0-180.043957 0Z" fill="#95E3EA" p-id="10236"></path><path d="M745.494505 559.824176m-39.384615 0a39.384615 39.384615 0 1 0 78.769231 0 39.384615 39.384615 0 1 0-78.769231 0Z" fill="#5FBFCF" p-id="10237"></path><path d="M787.692308 706.10989c0 185.67033-149.098901 317.89011-331.956044 317.89011S126.593407 891.78022 126.593407 706.10989s140.659341-270.065934 323.516483-270.065934 337.582418 84.395604 337.582418 270.065934z" fill="#95E3EA" p-id="10238"></path><path d="M461.362637 948.043956H450.10989c-30.945055 0-53.450549-25.318681-53.450549-53.450549v-73.142858h118.153846v73.142858c0 30.945055-25.318681 53.450549-53.45055 53.450549z" fill="#FFFFFF" p-id="10239"></path><path d="M419.164835 630.153846c0 59.076923-47.824176 104.087912-106.901099 104.087912s-106.901099-42.197802-106.901099-104.087912 47.824176-98.461538 106.901099-98.461538 106.901099 36.571429 106.901099 98.461538z" fill="#FFFFFF" p-id="10240"></path><path d="M258.813187 635.78022m-30.945055 0a30.945055 30.945055 0 1 0 61.89011 0 30.945055 30.945055 0 1 0-61.89011 0Z" fill="#1C1C1C" p-id="10241"></path><path d="M270.065934 644.21978m-11.252747 0a11.252747 11.252747 0 1 0 22.505494 0 11.252747 11.252747 0 1 0-22.505494 0Z" fill="#FFFFFF" p-id="10242"></path><path d="M700.483516 630.153846c0 59.076923-47.824176 104.087912-106.901098 104.087912s-106.901099-42.197802-106.901099-104.087912 47.824176-98.461538 106.901099-98.461538 106.901099 36.571429 106.901098 98.461538z" fill="#FFFFFF" p-id="10243"></path><path d="M537.318681 635.78022m-30.945055 0a30.945055 30.945055 0 1 0 61.89011 0 30.945055 30.945055 0 1 0-61.89011 0Z" fill="#1C1C1C" p-id="10244"></path><path d="M548.571429 644.21978m-11.252748 0a11.252747 11.252747 0 1 0 22.505495 0 11.252747 11.252747 0 1 0-22.505495 0Z" fill="#FFFFFF" p-id="10245"></path><path d="M382.593407 852.395604c-14.065934 0-30.945055-8.43956-36.571429-22.505494-11.252747-19.692308-2.813187-45.010989 16.879121-56.263736 28.131868-16.879121 56.263736-25.318681 95.648352-25.318682 30.945055 0 53.450549 5.626374 78.76923 16.879121 22.505495 8.43956 30.945055 33.758242 22.505495 56.263736-8.43956 22.505495-33.758242 30.945055-56.263736 22.505495-19.692308-8.43956-28.131868-11.252747-45.010989-11.252747-22.505495 0-36.571429 5.626374-56.263737 16.879121-8.43956 2.813187-14.065934 2.813187-19.692307 2.813186z" fill="#D3B46B" p-id="10246"></path><path d="M385.406593 756.747253a64.703297 39.384615 0 1 0 129.406594 0 64.703297 39.384615 0 1 0-129.406594 0Z" fill="#1C1C1C" p-id="10247"></path><path d="M458.549451 351.648352c-11.252747 14.065934-25.318681 22.505495-45.010989 30.945055-19.692308 5.626374-42.197802 11.252747-64.703297 11.252747-25.318681 0-47.824176-5.626374-64.703297-16.879121-19.692308-11.252747-33.758242-25.318681-42.197802-47.824176-11.252747-19.692308-16.879121-45.010989-16.879121-73.142857v-19.692308c0-28.131868 5.626374-53.450549 14.065934-73.142857s22.505495-36.571429 42.197802-47.824176c16.879121-11.252747 39.384615-16.879121 64.703297-16.879121 33.758242 0 61.89011 8.43956 78.769231 25.318682s30.945055 39.384615 33.758242 70.32967h-56.263737c-2.813187-16.879121-8.43956-28.131868-16.879121-36.571428s-22.505495-11.252747-36.571428-11.252748c-19.692308 0-36.571429 8.43956-45.010989 22.505495-11.252747 14.065934-16.879121 36.571429-16.879121 67.516483V253.186813c0 30.945055 5.626374 53.450549 16.879121 67.516484 11.252747 14.065934 28.131868 22.505495 50.637362 22.505494s39.384615-5.626374 47.824176-14.065934V281.318681h-53.450549V239.120879h112.527472v112.527473zM492.307692 281.318681c0-22.505495 2.813187-39.384615 11.252748-56.263736s19.692308-28.131868 33.758241-39.384615c14.065934-8.43956 33.758242-14.065934 53.45055-14.065934 28.131868 0 53.450549 8.43956 70.32967 25.318681 16.879121 16.879121 28.131868 42.197802 30.945055 70.32967v14.065934c0 33.758242-8.43956 59.076923-28.131868 78.769231-16.879121 19.692308-42.197802 30.945055-73.142857 30.945055s-56.263736-8.43956-73.142857-28.131868c-14.065934-19.692308-25.318681-45.010989-25.318682-81.582418z m59.076923 2.813187c0 19.692308 2.813187 36.571429 11.252748 47.824176 8.43956 11.252747 19.692308 16.879121 33.758241 16.879121s25.318681-5.626374 30.945055-16.879121c8.43956-11.252747 11.252747-28.131868 11.252748-50.637363 0-19.692308-2.813187-36.571429-11.252748-45.010989-8.43956-11.252747-19.692308-16.879121-33.758241-16.879121s-25.318681 5.626374-30.945055 16.879121c-8.43956 8.43956-11.252747 25.318681-11.252748 47.824176z" fill="#FFFFFF" p-id="10248"></path></svg>