<?xml version="1.0" standalone="no"?><!DOCTYPE svg PUBLIC "-//W3C//DTD SVG 1.1//EN" "http://www.w3.org/Graphics/SVG/1.1/DTD/svg11.dtd"><svg t="1732345744997" class="icon" viewBox="0 0 1026 1024" version="1.1" xmlns="http://www.w3.org/2000/svg" p-id="27853" xmlns:xlink="http://www.w3.org/1999/xlink" width="200.390625" height="200"><path d="M933.489243 59.921751a446.365727 446.365727 0 0 1-54.84645 95.981288A511.126728 511.126728 0 1 0 164.584198 886.837465l18.98531 16.875831A510.599359 510.599359 0 0 0 1022.087356 549.320847c14.766352-128.678211-24.259007-293.217562-88.598113-489.399096zM238.415958 891.056423a43.455265 43.455265 0 1 1-6.328437-61.174887 44.40453 44.40453 0 0 1 6.328437 61.174887z m691.909067-152.937217C804.811033 905.822775 534.797738 848.866846 362.875211 857.304761c0 0-30.587444 2.109479-61.174887 6.328437 0 0 11.602134-5.273697 26.368486-10.547394 121.295035-42.189577 178.250964-50.627493 252.082724-88.598113C718.322399 693.820149 856.493265 538.773453 883.91649 378.453059c-52.736972 153.991957-213.057365 286.889125-358.611407 340.680837-100.200246 36.91588-280.560689 72.777021-280.560688 72.777021l-7.383176-4.218958c-122.349774-60.120148-126.568732-325.914484 97.036027-411.348378 98.090767-37.97062 190.907837-16.875831 297.43652-42.189578 112.857119-26.368486 243.644809-110.74764 296.38178-221.49528 59.065408 178.250964 130.78769 454.592695 2.109479 625.460483z" fill="#6DB33F" p-id="27854" data-spm-anchor-id="a313x.search_index.0.i4.7ca93a81jLhrm5" class="selected"></path></svg>